<svg xmlns="http://www.w3.org/2000/svg" xmlns:xlink="http://www.w3.org/1999/xlink"><symbol id="contact" viewBox="0 0 24 24"><g fill="none">
    <path d="M22 16.92v3a2 2 0 0 1-2.18 2 19.79 19.79 0 0 1-8.63-3.07 19.5 19.5 0 0 1-6-6 19.79 19.79 0 0 1-3.07-8.67A2 2 0 0 1 4.11 2h3a2 2 0 0 1 2 1.72c.127.96.361 1.903.7 2.81a2 2 0 0 1-.45 2.11L8.09 9.91a16 16 0 0 0 6 6l1.27-1.27a2 2 0 0 1 2.11-.45c.907.339 1.85.574 2.81.7A2 2 0 0 1 22 16.92Z" fill="#BC3324"/>
</g></symbol><symbol id="handshake" viewBox="0 0 24 24"><g fill="none">
    <path d="M16.48 10.41c-.39.39-1.04.39-1.43 0l-4.47-4.46-7.05 7.04-.66-.63a3 3 0 0 1 0-4.24l4.24-4.24a3 3 0 0 1 4.24 0L16.48 9c.39.39.39 1.02 0 1.41Zm.7-2.12c.78.78.78 2.05 0 2.83-1.27 1.27-2.61.22-2.83 0l-3.76-3.76-5.57 5.57a.996.996 0 0 0 0 1.41c.39.39 1.02.39 1.42 0l4.62-4.62.71.71-4.62 4.62a.996.996 0 0 0 0 1.41c.39.39 1.02.39 1.42 0l4.62-4.62.71.71-4.62 4.62a.997.997 0 0 0 1.41 1.41l4.62-4.62.71.71-4.62 4.62a.998.998 0 0 0 .705 1.702.997.997 0 0 0 .705-.292l8.32-8.34a3 3 0 0 0 0-4.24l-4.24-4.24a3.001 3.001 0 0 0-4.18-.06l4.47 4.47Z" fill="#BC3324"/>
</g></symbol><symbol id="home" viewBox="0 0 24 24"><g fill="none">
    <path d="m20 8-6-5.26a3 3 0 0 0-4 0L4 8a3 3 0 0 0-1 2.26V19a3 3 0 0 0 3 3h12a3 3 0 0 0 3-3v-8.75A3 3 0 0 0 20 8Zm-6 12h-4v-5a1 1 0 0 1 1-1h2a1 1 0 0 1 1 1v5Zm5-1a1 1 0 0 1-1 1h-2v-5a3 3 0 0 0-3-3h-2a3 3 0 0 0-3 3v5H6a1 1 0 0 1-1-1v-8.75a1 1 0 0 1 .34-.75l6-5.25a1 1 0 0 1 1.32 0l6 5.25a1 1 0 0 1 .34.75V19Z" fill="#BC3324"/>
    <path d="M19 19a1 1 0 0 1-1 1h-2v-5a3 3 0 0 0-3-3h-2a3 3 0 0 0-3 3v5H6a1 1 0 0 1-1-1v-8.75a1 1 0 0 1 .34-.75l6-5.25a1 1 0 0 1 1.32 0l6 5.25a1 1 0 0 1 .34.75V19Z" fill="#BC3324"/>
</g></symbol><symbol id="information" viewBox="0 0 24 24"><g fill="none">
    <path fill-rule="evenodd" clip-rule="evenodd" d="M12 23c6.075 0 11-4.925 11-11S18.075 1 12 1 1 5.925 1 12s4.925 11 11 11Zm-1-6.6a1 1 0 0 1 1-1h.011a1 1 0 1 1 0 2H12a1 1 0 0 1-1-1Zm2-8.8a1 1 0 1 0-2 0V12a1 1 0 1 0 2 0V7.6Z" fill="#BC3324"/>
</g></symbol><symbol id="link" viewBox="0 0 68 42"><g fill="none">
    <path d="M33 35.142a19.89 19.89 0 0 0 10.198 5.474 19.84 19.84 0 0 0 11.507-1.138 19.935 19.935 0 0 0 8.938-7.367A20.06 20.06 0 0 0 67 21a20.06 20.06 0 0 0-3.357-11.111 19.935 19.935 0 0 0-8.938-7.367 19.84 19.84 0 0 0-11.507-1.138A19.891 19.891 0 0 0 33 6.858" stroke="#1F1E1E" stroke-width="2" stroke-linecap="round"/>
    <path d="M3.929 21h47.143M45.571 15.75l5.5 5.25-5.5 5.25" stroke="currentColor" stroke-width="2" stroke-linecap="round" stroke-linejoin="round"/>
</g></symbol><symbol id="location" viewBox="0 0 24 24"><g fill="none">
    <circle cx="12" cy="12" r="9" fill="currentColor"/>
</g></symbol><symbol id="logo" viewBox="0 0 202 147"><g fill="none">
    <path fill="#1F1E1E" d="M0 0h147v147H0z"/>
    <path d="M39.965 72.439H26.633V50.032h-.032v-.033h-4.686V73h18.05v-.561ZM43.932 73h18.117v-.561H48.618V61.285h10.494v-.594H48.618V50.56h13.43v-.561H43.933V73ZM70.7 73V50.56c2.87 0 11.714 1.089 12.374 13.893V73h4.686V49.999h-4.686v10.329C81.655 54.19 77.167 49.999 70.7 49.999h-4.686V73H70.7ZM97.39 73V50.56c2.87 0 11.714 1.089 12.374 13.893V73h4.686V49.999h-4.686v10.329c-1.419-6.138-5.907-10.329-12.375-10.329h-4.686V73h4.686ZM119.393 73h4.686V49.999h-4.686V73Z" fill="#fff"/>
    <path fill="#BC3324" d="M81 92h121v42H81z"/>
    <path d="M108.922 124h.54l2.94-8.55h8.55l3.33 8.55h4.47l-8.1-20.91h-4.53l-7.2 20.91Zm7.5-20.25 4.35 11.19h-8.19l3.84-11.19ZM132.644 103.09V124h4.26v-7.23h5.07l4.89 7.2h4.86l-5.16-7.65c3-.78 5.28-2.64 5.28-6.81 0-5.22-3.81-6.87-8.25-6.87-4.68 0-6.03 3.51-6.69 7.41v-6.96h-4.26Zm5.43 4.38c.81-2.94 2.91-4.14 4.77-4.29 4.47-.42 4.65 2.43 4.65 6.33 0 6.33-3.36 6.75-6.24 6.75h-4.35s-.12-4.14 1.17-8.79ZM162.084 103.6l.03 20.4h4.26v-20.4h8.61v-.51h-21.51v.51h8.61Z" fill="#fff"/>
</g></symbol><symbol id="ok" viewBox="0 0 26 26"><g fill="none">
    <circle cx="13" cy="13" r="13" fill="#1F1E1E"/>
    <path d="M19.71 8.21a1 1 0 0 0-1.42 0l-7.45 7.46-3.13-3.14A1.02 1.02 0 1 0 6.29 14l3.84 3.84a1.002 1.002 0 0 0 1.42 0l8.16-8.16a1 1 0 0 0 0-1.47Z" fill="#fff"/>
</g></symbol><symbol id="socnet" viewBox="0 0 160 58"><g fill="none">
    <path fill-rule="evenodd" clip-rule="evenodd" d="M29 58c16.016 0 29-12.984 29-29S45.016 0 29 0 0 12.984 0 29s12.984 29 29 29Zm-3.535-32.535a5 5 0 1 1 7.07 7.07 5 5 0 0 1-7.07-7.07Zm1.238 5.83a3.248 3.248 0 1 0 4.594-4.593 3.248 3.248 0 0 0-4.594 4.594ZM34 25a1 1 0 1 0 0-2 1 1 0 0 0 0 2Zm3.317-4.323a5.106 5.106 0 0 1 1.153 1.767c.297.787.455 1.618.468 2.459.062 1.06.062 1.405.062 4.114 0 2.709-.014 3.047-.062 4.114a7.296 7.296 0 0 1-.466 2.424 5.115 5.115 0 0 1-2.924 2.92 7.355 7.355 0 0 1-2.428.464C32.06 39 31.712 39 29 39s-3.05-.014-4.12-.061a7.321 7.321 0 0 1-2.427-.499 5.12 5.12 0 0 1-2.925-2.919 7.307 7.307 0 0 1-.466-2.425C19 32.035 19 31.69 19 28.982c0-2.709.014-3.047.062-4.114a7.293 7.293 0 0 1 .465-2.424 5.1 5.1 0 0 1 2.925-2.918 7.287 7.287 0 0 1 2.425-.466c1.061-.06 1.409-.06 4.12-.06 2.713 0 3.052.013 4.121.06.83.017 1.65.174 2.428.466a5.116 5.116 0 0 1 1.77 1.15Zm-.545 14.209c.221-.6.338-1.233.346-1.872v.001h.012c.047-1.06.047-1.35.047-4.052 0-2.702-.012-2.998-.06-4.053a5.624 5.624 0 0 0-.345-1.85 3.316 3.316 0 0 0-1.901-1.899 5.516 5.516 0 0 0-1.855-.345c-1.074-.06-1.352-.06-4.058-.06-2.707 0-3.003.013-4.06.06a5.571 5.571 0 0 0-1.853.345 3.314 3.314 0 0 0-1.91 1.899 5.579 5.579 0 0 0-.345 1.87c-.058 1.075-.058 1.351-.058 4.053s.01 2.999.058 4.052c.01.632.127 1.258.346 1.851a3.309 3.309 0 0 0 1.909 1.897c.593.22 1.22.337 1.853.345 1.076.061 1.352.061 4.06.061 2.705 0 3.003-.012 4.058-.06a5.544 5.544 0 0 0 1.855-.346 3.32 3.32 0 0 0 1.901-1.897ZM160 29c0 16.016-12.984 29-29 29s-29-12.984-29-29 12.984-29 29-29 29 12.984 29 29Zm-35.289-10A3.726 3.726 0 0 0 121 22.71v12.58a3.727 3.727 0 0 0 3.711 3.71h12.578A3.726 3.726 0 0 0 141 35.29V22.71a3.727 3.727 0 0 0-3.711-3.71h-12.578Zm12.578 1.818c1.055 0 1.893.838 1.893 1.893v12.578a1.881 1.881 0 0 1-1.893 1.893h-12.578a1.878 1.878 0 0 1-1.752-1.167 1.884 1.884 0 0 1-.141-.726V22.711c0-1.055.838-1.893 1.893-1.893h12.578ZM136.327 26c.398 0 .481.172.398.406h-.001c-.166.644-1.766 2.541-1.766 2.541-.139.188-.195.281 0 .492.069.08.215.201.382.34.173.142.367.302.522.456.564.535.989.985 1.108 1.295.108.312-.08.47-.455.47h-1.313c-.352 0-.529-.166-.911-.524a14.711 14.711 0 0 0-.626-.562c-.779-.632-1.113-.714-1.308-.714-.264 0-.343.063-.343.379v.991c0 .272-.103.43-.938.43-1.391 0-2.919-.711-4.004-2.022-1.627-1.92-2.072-3.373-2.072-3.665 0-.164.075-.313.45-.313h1.313c.336 0 .462.123.586.43.643 1.574 1.725 2.95 2.17 2.95.167 0 .244-.064.244-.421V27.33a1.138 1.138 0 0 0-.365-.812c-.088-.091-.157-.163-.157-.265 0-.124.126-.254.334-.254h2.064c.278 0 .37.125.37.406v2.19c0 .234.126.316.209.316.167 0 .306-.082.612-.34.946-.89 1.613-2.26 1.613-2.26.084-.163.238-.312.572-.312h1.312Z" fill="#1F1E1E"/>
</g></symbol><symbol id="star" viewBox="0 0 24 24"><g fill="none">
    <path d="M21.663 8.772a1 1 0 0 1 .33.462 1 1 0 0 1-.32 1.02l-4.13 4 1 5.68a1 1 0 0 1-.99 1.19.93.93 0 0 1-.46-.12l-5.1-2.68-5.12 2.67a1 1 0 0 1-1.45-1.07l1-5.68-4.13-4a1 1 0 0 1-.25-1 1 1 0 0 1 .81-.68l5.69-.84 2.55-5.16a1 1 0 0 1 1.8 0l2.55 5.17 5.69.83a1 1 0 0 1 .53.208Z" fill="#BC3324"/>
</g></symbol><symbol id="x" viewBox="0 0 24 24"><g fill="none">
    <path d="M18 6 6 18M6 6l12 12" stroke="#fff" stroke-width="2" stroke-linecap="round" stroke-linejoin="round"/>
</g></symbol></svg>